<?xml version="1.0" standalone="no"?>
<!DOCTYPE svg PUBLIC "-//W3C//DTD SVG 20010904//EN"
 "http://www.w3.org/TR/2001/REC-SVG-20010904/DTD/svg10.dtd">
<svg version="1.0" xmlns="http://www.w3.org/2000/svg"
 width="256.000000pt" height="256.000000pt" viewBox="0 0 256.000000 256.000000"
 preserveAspectRatio="xMidYMid meet">

<g transform="translate(0.000000,256.000000) scale(0.100000,-0.100000)"
fill="#000000" stroke="none">
<path d="M550 2551 c-180 -16 -290 -62 -388 -165 -73 -76 -115 -157 -139 -267
-16 -77 -18 -148 -18 -839 0 -838 1 -853 67 -984 42 -82 134 -176 216 -219
135 -71 145 -72 992 -72 847 0 857 1 992 72 82 43 174 137 216 219 66 131 67
146 67 984 0 694 -1 762 -18 840 -47 215 -195 366 -408 416 -66 15 -153 17
-784 19 -390 2 -748 0 -795 -4z m188 -339 c4 -50 -13 -79 -34 -61 -14 12 -20
90 -7 103 19 19 38 -1 41 -42z m1410 -64 c30 -30 -3 -94 -101 -195 l-40 -42
54 -191 c44 -161 51 -193 38 -201 -25 -15 -36 -10 -63 32 -19 27 -32 39 -43
35 -23 -9 -34 3 -23 25 9 15 5 29 -15 64 -23 38 -30 43 -45 35 -24 -13 -35 3
-20 30 8 15 8 25 -2 39 -13 18 -21 14 -131 -72 l-117 -92 0 -72 c0 -91 -19
-99 -48 -20 -19 50 -22 53 -78 73 -84 30 -78 48 16 52 l75 4 41 51 c23 29 64
80 93 114 49 59 51 62 31 73 -15 8 -25 7 -44 -5 -28 -19 -43 -6 -27 23 9 16 4
22 -38 42 -39 18 -52 20 -69 11 -24 -13 -40 2 -24 22 8 9 -3 20 -44 42 -45 24
-53 33 -48 50 4 11 8 22 10 24 2 3 99 -17 215 -43 l210 -47 63 58 c86 81 146
109 174 81z m-1671 -30 c36 -35 44 -68 15 -68 -26 0 -86 65 -79 84 9 24 28 19
64 -16z m540 16 c7 -19 -53 -84 -79 -84 -28 0 -22 30 14 67 35 36 55 42 65 17z
m-223 -56 c55 -16 138 -99 154 -154 29 -98 8 -178 -63 -249 -102 -102 -238
-102 -340 0 -102 102 -102 238 0 340 70 71 152 91 249 63z m-385 -221 c17 -21
-7 -37 -55 -37 -45 0 -60 11 -50 35 7 19 89 20 105 2z m716 -12 c0 -17 -8 -20
-49 -23 -52 -3 -72 7 -62 33 4 13 17 15 58 13 45 -3 53 -6 53 -23z m-615 -235
c-14 -25 -71 -71 -83 -67 -24 8 -17 30 22 68 34 34 44 39 56 29 10 -9 12 -17
5 -30z m484 -11 c15 -17 25 -36 23 -42 -8 -24 -30 -17 -68 22 -34 34 -39 44
-29 56 15 18 38 8 74 -36z m-259 -109 c0 -48 -2 -55 -20 -55 -16 0 -21 8 -23
44 -4 54 3 73 25 69 15 -3 18 -14 18 -58z m553 -172 c-85 -98 -123 -154 -168
-251 -84 -181 -91 -351 -20 -556 l29 -84 -107 7 c-59 4 -128 9 -154 13 l-48 6
0 56 c0 80 32 225 72 324 49 122 130 245 233 355 75 79 210 202 222 202 2 0
-25 -33 -59 -72z m-82 3 c-11 -12 -36 -20 -73 -24 -121 -13 -235 -98 -265
-199 -11 -37 -13 -38 -42 -31 -62 16 -131 8 -179 -21 -175 -102 -97 -348 111
-349 53 0 57 -3 46 -31 -8 -21 -64 -21 -133 0 -38 11 -67 29 -100 62 -89 90
-95 207 -15 300 51 61 104 84 196 90 l76 4 18 39 c45 101 178 177 313 178 62
1 64 0 47 -18z m170 -28 c32 -16 76 -50 104 -80 44 -48 51 -52 82 -47 82 14
189 -53 203 -126 l6 -35 67 0 c165 -1 266 -142 203 -282 -35 -75 -145 -131
-232 -117 -30 5 -36 2 -51 -23 -9 -16 -25 -36 -35 -45 -16 -14 -20 -15 -37 -2
-19 14 -19 15 7 42 15 15 32 42 38 60 9 28 14 31 33 25 11 -4 49 -8 83 -8 47
0 68 5 90 21 135 100 71 285 -98 284 -30 -1 -65 -7 -79 -15 -41 -23 -45 -19
-42 39 3 50 1 57 -30 92 -30 32 -42 38 -90 42 -30 2 -64 -1 -75 -7 -18 -9 -24
-5 -50 38 -25 39 -106 111 -127 111 -2 0 -16 4 -31 10 -22 8 -24 13 -15 30 13
25 10 25 76 -7z m-100 -390 c0 -105 4 -139 22 -187 30 -81 81 -169 141 -244
28 -34 51 -65 51 -68 0 -5 -158 4 -196 11 -24 5 -53 65 -78 161 -20 77 -21
212 -2 285 13 49 55 169 59 169 1 0 2 -57 3 -127z m253 -261 c77 -97 228 -190
399 -247 46 -15 82 -28 80 -30 -2 -2 -82 3 -178 11 -96 7 -180 14 -187 14 -19
0 -117 128 -152 197 -33 66 -61 159 -61 203 0 19 7 10 29 -35 15 -33 47 -84
70 -113z"/>
<path d="M652 2029 c-18 -5 -50 -27 -72 -49 -89 -89 -73 -228 33 -298 58 -38
146 -38 204 0 61 40 88 90 88 163 0 71 -27 123 -85 161 -42 28 -118 39 -168
23z"/>
</g>
</svg>
